<?xml version="1.0" encoding="utf-8"?>
<!-- Generator: Adobe Illustrator 16.0.0, SVG Export Plug-In . SVG Version: 6.00 Build 0)  -->
<!DOCTYPE svg PUBLIC "-//W3C//DTD SVG 1.1//EN" "http://www.w3.org/Graphics/SVG/1.1/DTD/svg11.dtd">
<svg version="1.1" id="图层_1" xmlns="http://www.w3.org/2000/svg" xmlns:xlink="http://www.w3.org/1999/xlink" x="0px" y="0px"
	 width="1000px" height="710.964px" viewBox="0 0 1000 710.964" enable-background="new 0 0 1000 710.964" xml:space="preserve">
<g>
	<defs>
		<rect id="SVGID_1_" y="-172.107" width="1000" height="1000"/>
	</defs>
	<clipPath id="SVGID_2_">
		<use xlink:href="#SVGID_1_"  overflow="visible"/>
	</clipPath>
	<path clip-path="url(#SVGID_2_)" fill="#D4E9FA" d="M89.039,621.929h799.516c2.494-6.286,5.189-12.476,8.109-18.536
		c17.22-35.751,41.776-67.588,53.047-106.103c11.682-39.917,7.22-85.916-14.478-120.39
		c-36.313-57.697-110.995-74.322-146.785-132.414c-28.399-46.096-27.418-111.158-63.452-150.261
		c-28.175-30.574-71.865-36.425-111.13-31.028s-77.157,20.196-116.541,24.404c-40.884,4.369-82.759-3.015-120.356-21.22
		c-21.024-10.18-40.954-23.756-63.313-29.54c-35.439-9.168-74.242,3.18-101.716,29.467c-27.473,26.287-43.754,65.371-46.879,105.287
		c-2.739,34.987,4.023,69.948,5.723,105.015c1.699,35.066-2.659,72.935-23.746,99.29c-20.522,25.648-53.153,35.813-75.164,59.92
		c-32.732,35.849-34.129,96.627-12.845,141.728C66.852,594.126,77.172,608.83,89.039,621.929"/>
	<path clip-path="url(#SVGID_2_)" fill="#DCE5FF" d="M459.659,535.901c-9.45-37.313-20.471-70.357-37.326-103.886
		c-16.855-33.527-32.041-69.403-28.093-105.887c0.703-6.495,2.763-13.878,9.399-16.763c8.778-3.815,18.704,2.798,24.933,9.463
		c21.976,23.515,31.062,49.601,38.626,79.315c10.504,41.266,19.605,100.901,16.068,139.145"/>
	<path clip-path="url(#SVGID_2_)" fill="#FFFFFF" d="M410.088,320.154c6.157,11.389,11.723,23.099,16.831,34.995
		c5.578,12.988,10.593,26.221,15.108,39.615c4.757,14.108,8.956,28.407,12.645,42.831c3.844,15.026,7.144,30.196,9.874,45.464
		c2.786,15.573,5.011,31.248,6.591,46.989c0.196,1.954,0.423,3.905,0.632,5.859c0.027,0.26,0.433,0.269,0.414,0
		c-1.077-15.7-3.237-31.382-5.855-46.894c-2.601-15.41-5.784-30.723-9.557-45.889c-3.646-14.656-7.821-29.183-12.549-43.526
		c-4.47-13.561-9.412-26.968-14.927-40.139c-5.048-12.054-10.573-23.905-16.707-35.446c-0.72-1.353-1.448-2.701-2.183-4.046
		C410.292,319.761,409.975,319.946,410.088,320.154"/>
	<path clip-path="url(#SVGID_2_)" fill="#FFFFFF" d="M432.247,451.569c8.686,4.749,17.009,10.229,24.687,16.483
		c2.112,1.72,4.106,3.569,6.196,5.312c0.282,0.233,0.679-0.144,0.409-0.409c-1.749-1.72-3.694-3.274-5.595-4.822
		c-1.882-1.533-3.802-3.021-5.756-4.46c-3.958-2.92-8.054-5.688-12.298-8.175c-2.469-1.447-4.978-2.824-7.521-4.139
		C432.23,451.289,432.109,451.494,432.247,451.569"/>
	<path clip-path="url(#SVGID_2_)" fill="#FFFFFF" d="M425.925,439.681c4.869,2.365,9.654,5.004,14.263,7.842
		c4.57,2.813,8.977,5.896,13.174,9.243c2.335,1.863,4.606,3.807,6.812,5.821c0.278,0.254,0.693-0.158,0.414-0.414
		c-7.894-7.239-16.734-13.492-26.162-18.575c-2.754-1.485-5.561-2.792-8.422-4.052C425.914,439.506,425.833,439.636,425.925,439.681
		"/>
	<path clip-path="url(#SVGID_2_)" fill="#FFFFFF" d="M469.6,412.996c-2.449,2.886-4.39,6.267-6.148,9.603
		c-2.315,4.395-4.341,8.994-5.719,13.772c-0.716,2.487-1.254,5.041-1.4,7.63c-0.022,0.382,0.573,0.382,0.594,0
		c0.249-4.711,1.75-9.335,3.504-13.682c1.744-4.32,3.865-8.516,6.279-12.5c0.957-1.581,1.958-3.159,3.094-4.619
		C469.916,413.056,469.722,412.85,469.6,412.996"/>
	<path clip-path="url(#SVGID_2_)" fill="#FFFFFF" d="M455.003,362.572c-2.149,5.073-3.739,10.378-5.208,15.681
		c-1.591,5.742-3.001,11.552-3.986,17.431c-0.419,2.498-0.779,5.019-0.843,7.555c-0.005,0.183,0.267,0.178,0.282,0
		c0.407-5.009,1.462-9.987,2.578-14.878c1.346-5.892,2.892-11.742,4.711-17.507c0.863-2.736,1.762-5.466,2.773-8.151
		C455.376,362.525,455.077,362.397,455.003,362.572"/>
	<path clip-path="url(#SVGID_2_)" fill="#FFFFFF" d="M397.662,367.974c10.964,3.58,21.999,6.995,32.415,12.016
		c2.912,1.403,5.767,2.923,8.552,4.563c0.296,0.174,0.563-0.286,0.268-0.459c-9.92-5.831-20.686-9.997-31.632-13.455
		c-3.169-1.002-6.362-1.913-9.574-2.769C397.622,367.85,397.595,367.954,397.662,367.974"/>
	<path clip-path="url(#SVGID_2_)" fill="#FFFFFF" d="M393.448,337.958c8.688,3.188,17.447,6.198,25.62,10.598
		c2.321,1.249,4.587,2.599,6.788,4.05c0.286,0.188,0.553-0.271,0.268-0.459c-7.75-5.098-16.279-8.803-25.009-11.861
		c-2.524-0.885-5.071-1.685-7.638-2.433C393.408,337.833,393.383,337.935,393.448,337.958"/>
	<path clip-path="url(#SVGID_2_)" fill="#FFFFFF" d="M393.869,329.777c7.619,3.159,15.304,6.161,22.363,10.484
		c2.02,1.237,3.98,2.568,5.873,3.991c0.273,0.205,0.539-0.256,0.268-0.459c-6.659-4.99-14.121-8.691-21.837-11.742
		c-2.188-0.865-4.402-1.647-6.638-2.379C393.829,329.649,393.806,329.75,393.869,329.777"/>
	<path clip-path="url(#SVGID_2_)" fill="#FFFFFF" d="M413.01,410.458c2.921,1.118,5.854,2.2,8.722,3.449
		c2.746,1.195,5.445,2.495,8.102,3.876c5.357,2.782,10.525,5.919,15.535,9.284c1.407,0.944,2.8,1.908,4.183,2.886
		c1.366,0.968,2.693,2.006,4.102,2.911c0.165,0.105,0.366-0.146,0.213-0.276c-2.232-1.897-4.746-3.525-7.162-5.177
		c-2.543-1.737-5.125-3.416-7.753-5.022c-5.232-3.198-10.644-6.11-16.264-8.569c-3.133-1.369-6.322-2.661-9.614-3.594
		C412.922,410.181,412.867,410.403,413.01,410.458"/>
	<path clip-path="url(#SVGID_2_)" fill="#FFFFFF" d="M478.168,470.573c-2.068,4.318-4.058,8.669-5.959,13.063
		c-0.908,2.098-1.791,4.205-2.653,6.322c-0.909,2.23-1.931,4.474-2.59,6.794c-0.036,0.125,0.154,0.212,0.214,0.09
		c0.999-2.041,1.74-4.22,2.596-6.323c0.924-2.271,1.871-4.533,2.832-6.79c1.861-4.371,3.789-8.717,5.749-13.046
		C478.415,470.557,478.23,470.445,478.168,470.573"/>
	<path clip-path="url(#SVGID_2_)" fill="#DCE5FF" d="M499.304,535.824c5.283-33.087,9.722-63.174,15.785-93.098
		c8.317-41.05,26.02-86.506,2.511-125.25c-14.739-24.29-30.067,10.229-34.859,24.869c-5.208,15.909-8.697,32.262-10.528,48.755
		c-3.744,33.707,1.574,104.046,11.079,146.188"/>
	<path clip-path="url(#SVGID_2_)" fill="#FFFFFF" d="M506.954,309.965c-2.002,9.063-3.666,18.2-5.183,27.354
		c-2.073,12.512-3.821,25.075-5.327,37.667c-1.857,15.529-3.344,31.103-4.465,46.702c-1.263,17.563-2.07,35.16-2.382,52.767
		c-0.335,18.906-0.084,37.818,0.876,56.703c0.123,2.41,0.271,4.816,0.43,7.223c0.018,0.27,0.435,0.272,0.422,0
		c-0.904-19.001-1.357-38.01-1.159-57.033c0.186-17.742,0.883-35.479,2.044-53.185c1.04-15.851,2.447-31.678,4.232-47.464
		c1.484-13.13,3.228-26.232,5.275-39.287c1.5-9.564,3.156-19.111,5.139-28.589c0.19-0.909,0.384-1.817,0.581-2.725
		C507.505,309.785,507.023,309.651,506.954,309.965"/>
	<path clip-path="url(#SVGID_2_)" fill="#FFFFFF" d="M471.204,408.875c-0.103,8.563-0.043,17.127,0.187,25.687
		c0.241,8.976,0.667,17.944,1.315,26.898c0.66,9.123,1.538,18.23,2.683,27.306c1.132,8.967,2.526,17.9,4.27,26.77
		c1.678,8.54,3.649,17.036,6.118,25.385c0.301,1.015,0.619,2.024,0.94,3.032c0.077,0.243,0.456,0.143,0.384-0.105
		c-2.384-8.316-4.483-16.707-6.209-25.186c-1.802-8.849-3.256-17.77-4.452-26.72c-1.212-9.068-2.147-18.173-2.86-27.293
		c-0.703-8.984-1.195-17.986-1.5-26.992c-0.289-8.555-0.407-17.115-0.361-25.675c0.006-1.035,0.014-2.071,0.024-3.106
		C471.746,408.528,471.208,408.528,471.204,408.875"/>
	<path clip-path="url(#SVGID_2_)" fill="#FFFFFF" d="M512.032,454.103c-6.772,3.097-12.918,7.497-17.937,13.01
		c-0.675,0.742-1.329,1.506-1.959,2.287c-0.591,0.731-1.329,1.5-1.696,2.371c-0.093,0.219,0.22,0.342,0.365,0.213
		c0.632-0.56,1.088-1.364,1.609-2.025c0.559-0.709,1.138-1.404,1.733-2.083c1.18-1.345,2.425-2.63,3.732-3.851
		c2.695-2.518,5.648-4.747,8.77-6.709c1.771-1.113,3.601-2.129,5.478-3.052C512.236,454.211,512.141,454.053,512.032,454.103"/>
	<path clip-path="url(#SVGID_2_)" fill="#FFFFFF" d="M517.434,419.527c-7.891,4.001-15.068,9.328-21.159,15.748
		c-1.692,1.783-3.293,3.65-4.801,5.592c-0.258,0.332,0.2,0.692,0.46,0.355c5.322-6.908,11.876-12.815,19.154-17.604
		c2.102-1.382,4.256-2.685,6.464-3.889C517.685,419.657,517.567,419.459,517.434,419.527"/>
	<path clip-path="url(#SVGID_2_)" fill="#FFFFFF" d="M517.776,414.71c-7.849,2.768-15.165,6.956-21.445,12.426
		c-1.733,1.509-3.414,3.106-4.938,4.826c-0.229,0.259,0.143,0.638,0.381,0.382c2.778-2.984,5.729-5.752,9.004-8.189
		c3.265-2.43,6.756-4.536,10.4-6.342c2.168-1.075,4.393-2.029,6.662-2.869C517.985,414.891,517.924,414.659,517.776,414.71"/>
	<path clip-path="url(#SVGID_2_)" fill="#FFFFFF" d="M526.613,367.744c-8.976,4.404-17.849,9.181-25.589,15.574
		c-2.154,1.78-4.202,3.682-6.124,5.711c-0.277,0.291,0.164,0.733,0.442,0.441c6.833-7.181,15.141-12.604,23.777-17.364
		c2.533-1.396,5.092-2.749,7.66-4.079C526.967,367.93,526.801,367.652,526.613,367.744"/>
	<path clip-path="url(#SVGID_2_)" fill="#FFFFFF" d="M525.166,336.032c-3.646,2.352-7.311,4.679-10.896,7.12
		c-3.667,2.495-7.245,5.214-10.349,8.394c-1.692,1.732-3.226,3.614-4.526,5.659c-0.201,0.314,0.3,0.605,0.499,0.292
		c4.758-7.535,12.509-12.522,19.75-17.406c1.888-1.272,3.77-2.555,5.651-3.836C525.432,336.162,525.307,335.941,525.166,336.032"/>
	<path clip-path="url(#SVGID_2_)" fill="#FFFFFF" d="M523.864,330.91c-6.839,3.488-13.686,7.152-19.318,12.454
		c-1.624,1.528-3.131,3.175-4.529,4.911c-0.197,0.244,0.15,0.595,0.348,0.348c2.365-2.965,5.058-5.643,8.044-7.981
		c2.988-2.341,6.228-4.343,9.527-6.21c2-1.134,4.011-2.249,6.027-3.354C524.073,331.017,523.976,330.852,523.864,330.91"/>
	<path clip-path="url(#SVGID_2_)" fill="#FFFFFF" d="M501.848,339.507c-1.667-2.519-3.602-4.819-5.806-6.884
		c-2.227-2.087-4.719-4.081-7.407-5.544c-0.218-0.118-0.401,0.197-0.194,0.33c2.59,1.667,5.096,3.353,7.377,5.438
		c2.206,2.017,4.22,4.271,5.956,6.703C501.805,339.595,501.878,339.554,501.848,339.507"/>
	<path clip-path="url(#SVGID_2_)" fill="#FFFFFF" d="M497.381,372.805c-0.159-1.993-1.76-3.696-2.976-5.18
		c-1.348-1.646-2.799-3.207-4.337-4.678c-3.125-2.988-6.605-5.594-10.327-7.794c-0.238-0.141-0.455,0.23-0.217,0.371
		c3.604,2.125,6.977,4.628,10.021,7.499c1.473,1.39,2.869,2.861,4.172,4.411c1.311,1.558,3.035,3.333,3.395,5.407
		C497.139,372.993,497.393,372.959,497.381,372.805"/>
	<path clip-path="url(#SVGID_2_)" fill="#FFFFFF" d="M496.769,378.882c-2.564-3.329-5.57-6.353-8.679-9.173
		c-3.165-2.87-6.505-5.614-10.035-8.024c-0.256-0.175-0.484,0.233-0.241,0.411c3.468,2.527,6.845,5.136,10.026,8.021
		c3.094,2.806,5.957,5.817,8.843,8.832C496.725,378.993,496.808,378.933,496.769,378.882"/>
	<path clip-path="url(#SVGID_2_)" fill="#FFFFFF" d="M493.322,411.879c-0.394-1.599-1.804-2.742-2.931-3.85
		c-1.369-1.345-2.762-2.665-4.178-3.961c-2.877-2.632-5.849-5.161-8.907-7.582c-1.693-1.342-3.412-2.649-5.161-3.917
		c-0.286-0.207-0.558,0.267-0.277,0.472c3.895,2.846,7.692,5.82,11.342,8.974c1.777,1.534,3.52,3.106,5.228,4.716
		c0.836,0.789,1.665,1.585,2.485,2.393c0.848,0.836,1.726,1.689,2.173,2.817C493.15,412.08,493.359,412.03,493.322,411.879"/>
	<path clip-path="url(#SVGID_2_)" fill="#FFFFFF" d="M491.77,437.512c-1.241-1.627-2.743-3.085-4.222-4.494
		c-1.495-1.424-3.053-2.779-4.669-4.064c-3.265-2.598-6.801-5.053-10.537-6.929c-0.25-0.125-0.466,0.235-0.22,0.378
		c3.649,2.131,7.2,4.31,10.524,6.935c1.592,1.258,3.131,2.584,4.607,3.976c1.489,1.404,2.847,2.93,4.302,4.364
		C491.662,437.784,491.867,437.639,491.77,437.512"/>
	<path clip-path="url(#SVGID_2_)" fill="#FFFFFF" d="M488.781,469.834c-4.679-6.373-10.228-12.243-16.498-17.079
		c-0.215-0.167-0.505,0.205-0.293,0.38c6.119,5.048,11.769,10.537,16.656,16.803C488.706,470.015,488.839,469.914,488.781,469.834"
		/>
	<path clip-path="url(#SVGID_2_)" fill="#FFFFFF" d="M489.89,510.357c-1.286-1.437-2.711-2.733-4.152-4.021
		c-2.454-2.196-4.961-4.486-7.73-6.282c-0.322-0.209-0.597,0.289-0.296,0.506c2.7,1.948,5.249,4.065,7.733,6.283
		c1.404,1.253,2.79,2.525,4.235,3.724C489.826,510.687,490.019,510.5,489.89,510.357"/>
	<path clip-path="url(#SVGID_2_)" fill="#DCE5FF" d="M510.8,541.007c9.349-33.089,31.508-61.875,51.646-90.862
		c20.14-28.988,39.098-60.332,40.738-94.434c0.291-6.071-0.523-13.116-6.146-16.539c-7.438-4.526-17.415,0.434-24.037,5.865
		c-23.361,19.165-35.366,42.181-46.508,68.718c-15.472,36.853-26,83.842-28.267,119.519"/>
	<path clip-path="url(#SVGID_2_)" fill="#FFFFFF" d="M545.484,375.614c-5.003,7.872-9.263,16.197-13.135,24.676
		c-4.581,10.027-8.597,20.317-12.26,30.714c-3.937,11.175-7.43,22.507-10.496,33.95c-3.027,11.298-5.657,22.713-7.669,34.237
		c-1.821,10.432-3.173,20.986-3.705,31.567c-0.06,1.202-0.109,2.406-0.146,3.609c-0.004,0.141,0.214,0.141,0.219,0
		c0.409-10.436,1.682-20.842,3.472-31.125c1.986-11.408,4.406-22.729,7.297-33.943c2.954-11.466,6.352-22.817,10.157-34.028
		c3.603-10.612,7.593-21.092,12.066-31.367c3.797-8.723,7.902-17.358,12.733-25.562c0.524-0.89,1.058-1.772,1.6-2.65
		C545.671,375.606,545.538,375.529,545.484,375.614"/>
	<path clip-path="url(#SVGID_2_)" fill="#FFFFFF" d="M589.334,348.187c-7.309,9.794-14.116,19.952-20.5,30.372
		c-6.947,11.339-13.408,22.972-19.466,34.809c-6.419,12.544-12.374,25.324-17.872,38.298c-5.641,13.31-10.791,26.821-15.441,40.508
		c-4.771,14.04-8.983,28.271-12.608,42.65c-0.451,1.787-0.851,3.586-1.253,5.384c-0.058,0.261,0.331,0.37,0.399,0.111
		c3.804-14.294,7.756-28.513,12.376-42.57c4.553-13.852,9.621-27.537,15.154-41.028c5.387-13.134,11.237-26.079,17.562-38.789
		c5.948-11.953,12.337-23.692,19.189-35.152c6.317-10.565,13.026-20.91,20.221-30.9c0.845-1.174,1.697-2.343,2.557-3.507
		C589.792,348.181,589.474,348,589.334,348.187"/>
	<path clip-path="url(#SVGID_2_)" fill="#FFFFFF" d="M550.552,466.82c-8.677,3.179-17.003,7.215-24.89,12.032
		c-2.215,1.354-4.488,2.711-6.558,4.282c-0.287,0.219-0.031,0.703,0.292,0.5c1.924-1.21,3.773-2.541,5.699-3.751
		c1.936-1.217,3.9-2.387,5.893-3.51c3.98-2.244,8.071-4.261,12.225-6.165c2.439-1.118,4.908-2.169,7.403-3.155
		C550.759,466.998,550.7,466.766,550.552,466.82"/>
	<path clip-path="url(#SVGID_2_)" fill="#FFFFFF" d="M558.032,456.661c-2.447,0.729-4.862,1.475-7.253,2.378
		c-2.324,0.879-4.619,1.826-6.885,2.844c-4.623,2.076-9.126,4.423-13.469,7.034c-2.418,1.453-4.782,2.992-7.091,4.613
		c-0.307,0.215-0.015,0.723,0.295,0.506c8.232-5.753,17.113-10.49,26.44-14.209c2.642-1.053,5.313-2.095,8.004-3.016
		C558.168,456.779,558.13,456.631,558.032,456.661"/>
	<path clip-path="url(#SVGID_2_)" fill="#FFFFFF" d="M521.946,427.333c1.662,2.993,2.863,6.268,3.958,9.5
		c1.462,4.318,2.63,8.784,3.177,13.317c0.284,2.356,0.396,4.746,0.152,7.112c-0.038,0.379,0.557,0.378,0.594,0
		c0.433-4.398-0.279-8.888-1.284-13.162c-0.99-4.215-2.345-8.352-4.051-12.33c-0.674-1.572-1.396-3.126-2.297-4.583
		C522.098,427.029,521.855,427.169,521.946,427.333"/>
	<path clip-path="url(#SVGID_2_)" fill="#FFFFFF" d="M536.039,392.681c0.94,1.888,1.585,3.913,2.136,5.944
		c0.715,2.639,1.263,5.322,1.736,8.014c0.937,5.317,1.615,10.702,1.954,16.092c0.107,1.71,0.267,3.495,0.055,5.203
		c-0.05,0.398,0.575,0.395,0.625,0c0.185-1.489,0.067-3.037-0.015-4.529c-0.136-2.455-0.367-4.905-0.646-7.348
		c-0.645-5.642-1.498-11.304-2.918-16.807c-0.597-2.313-1.248-4.761-2.482-6.83C536.313,392.133,535.893,392.386,536.039,392.681"/>
	<path clip-path="url(#SVGID_2_)" fill="#FFFFFF" d="M541.384,382.333c1.674,4.717,2.471,9.802,3.124,14.744
		c0.73,5.539,1.184,11.131,1.316,16.716c0.058,2.396,0.064,4.806-0.108,7.197c-0.014,0.184,0.258,0.174,0.281,0
		c0.626-4.728,0.354-9.607,0.032-14.349c-0.384-5.681-1.066-11.375-2.205-16.955c-0.515-2.526-1.147-5.049-2.116-7.442
		C541.629,382.047,541.311,382.125,541.384,382.333"/>
	<path clip-path="url(#SVGID_2_)" fill="#FFFFFF" d="M594.051,393.809c-10.642,1.452-21.274,3.595-31.466,7.03
		c-2.835,0.955-5.631,2.022-8.38,3.204c-0.313,0.135-0.043,0.593,0.269,0.458c9.813-4.228,20.213-6.815,30.675-8.85
		c2.978-0.579,5.955-1.15,8.931-1.737C594.15,393.901,594.118,393.8,594.051,393.809"/>
	<path clip-path="url(#SVGID_2_)" fill="#FFFFFF" d="M602.188,366.611c-8.514,1.355-16.999,3.383-25.051,6.495
		c-2.285,0.884-4.532,1.863-6.731,2.941c-0.308,0.149-0.038,0.608,0.268,0.459c7.732-3.799,16.017-6.221,24.39-8.139
		c2.386-0.547,4.771-1.091,7.153-1.651C602.286,366.7,602.255,366.6,602.188,366.611"/>
	<path clip-path="url(#SVGID_2_)" fill="#FFFFFF" d="M602.978,359.016c-7.483,1.445-14.902,3.566-21.87,6.679
		c-2.079,0.929-4.112,1.955-6.094,3.077c-0.298,0.169-0.03,0.628,0.269,0.459c6.711-3.813,14.003-6.355,21.427-8.38
		c2.102-0.572,4.201-1.143,6.297-1.73C603.074,359.102,603.046,359.002,602.978,359.016"/>
	<path clip-path="url(#SVGID_2_)" fill="#FFFFFF" d="M575.5,431.296c-5.779,0.882-11.493,2.641-17.007,4.553
		c-5.535,1.92-10.961,4.158-16.246,6.686c-1.456,0.696-2.9,1.415-4.333,2.157c-1.425,0.738-2.884,1.458-4.228,2.338
		c-0.191,0.125-0.026,0.399,0.177,0.304c2.546-1.2,4.987-2.635,7.521-3.867c2.669-1.298,5.375-2.521,8.113-3.665
		c5.436-2.271,11.003-4.245,16.665-5.871c3.111-0.894,6.263-1.618,9.402-2.4C575.72,431.491,575.65,431.273,575.5,431.296"/>
	<path clip-path="url(#SVGID_2_)" fill="#FFFFFF" d="M505.929,479.366c1.158,4.216,2.285,8.442,3.349,12.683
		c0.526,2.098,1.041,4.198,1.536,6.303c0.502,2.134,0.869,4.333,1.53,6.423c0.038,0.119,0.246,0.106,0.23-0.031
		c-0.24-2.109-0.819-4.199-1.302-6.264c-0.5-2.146-1.023-4.286-1.573-6.42c-1.101-4.275-2.292-8.522-3.56-12.751
		C506.1,479.173,505.892,479.23,505.929,479.366"/>
	<path clip-path="url(#SVGID_2_)" fill="#DCE5FF" d="M459.192,547.856c3.478-49.483-11.434-95.91-37.781-139.5
		c-17.305-28.63-57.55-62.732-77.683-47.034c-18.274,14.249,11.568,43.695,24.989,58.286
		c36.195,39.348,65.078,71.829,76.606,121.237"/>
	<path clip-path="url(#SVGID_2_)" fill="#FFFFFF" d="M343.653,361.451c10.352,5.437,19.597,12.789,27.986,20.886
		c10.037,9.687,19.004,20.461,27.217,31.721c9.036,12.388,17.171,25.421,24.575,38.845c7.596,13.772,14.397,27.991,20.319,42.563
		c5.618,13.825,10.455,27.998,14.077,42.48c0.41,1.639,0.809,3.28,1.207,4.922c0.05,0.206,0.36,0.118,0.316-0.087
		c-3.078-14.494-7.786-28.71-13.112-42.519c-5.632-14.602-12.189-28.845-19.529-42.666c-7.321-13.786-15.447-27.164-24.456-39.914
		c-8.146-11.527-17.021-22.621-26.979-32.642c-4.434-4.462-9.087-8.716-14.017-12.625c-4.404-3.492-9.034-6.799-13.992-9.463
		c-1.14-0.612-2.294-1.199-3.462-1.759C343.632,361.113,343.482,361.361,343.653,361.451"/>
	<path clip-path="url(#SVGID_2_)" fill="#FFFFFF" d="M404.474,421.196c-2.604-1.162-5.349-2.04-8.06-2.916
		c-2.776-0.897-5.576-1.724-8.397-2.467c-5.632-1.485-11.344-2.669-17.104-3.543c-1.577-0.239-3.157-0.455-4.74-0.648
		c-0.78-0.095-1.561-0.185-2.343-0.269c-0.79-0.084-1.595-0.239-2.384-0.123c-0.149,0.021-0.117,0.23,0,0.271
		c0.619,0.215,1.265,0.228,1.915,0.296c0.743,0.077,1.485,0.16,2.227,0.247c1.462,0.174,2.921,0.366,4.378,0.58
		c2.841,0.416,5.671,0.907,8.487,1.474c5.638,1.134,11.218,2.565,16.708,4.279c3.089,0.964,6.111,2.126,9.195,3.098
		C404.518,421.525,404.634,421.267,404.474,421.196"/>
	<path clip-path="url(#SVGID_2_)" fill="#FFFFFF" d="M386.233,396.238c-2.591-1.123-5.33-1.933-8.032-2.745
		c-2.745-0.825-5.513-1.573-8.301-2.244c-5.542-1.334-11.154-2.372-16.805-3.119c-3.255-0.43-6.522-0.762-9.797-0.982
		c-0.292-0.021-0.289,0.431,0,0.453c11.396,0.869,22.666,2.841,33.653,6.003c3.083,0.887,6.103,1.982,9.189,2.855
		C386.269,396.496,386.362,396.293,386.233,396.238"/>
	<path clip-path="url(#SVGID_2_)" fill="#FFFFFF" d="M378.114,387.207c-2.52-0.87-5.133-1.505-7.707-2.195
		c-2.585-0.692-5.177-1.361-7.78-1.983c-5.065-1.21-10.183-2.224-15.35-2.884c-3.016-0.387-6.047-0.646-9.085-0.754
		c-0.267-0.01-0.266,0.404,0,0.414c10.626,0.382,21.049,2.681,31.299,5.375c2.849,0.749,5.681,1.638,8.563,2.246
		C378.197,387.455,378.252,387.254,378.114,387.207"/>
	<path clip-path="url(#SVGID_2_)" fill="#FFFFFF" d="M372.292,361.816c0.887,3.849,1.782,7.657,2.262,11.586
		c0.232,1.899,0.394,3.808,0.486,5.718c0.045,0.955,0.074,1.91,0.085,2.866c0.005,0.449,0.286,2.805-0.489,2.744
		c-0.289-0.021-0.281,0.415,0,0.445c0.574,0.063,0.863-0.456,0.937-0.96c0.144-0.986,0.031-2.07,0.01-3.065
		c-0.046-2.19-0.186-4.38-0.416-6.56c-0.457-4.317-1.163-8.738-2.506-12.876C372.585,361.48,372.236,361.575,372.292,361.816"/>
	<path clip-path="url(#SVGID_2_)" fill="#FFFFFF" d="M399.313,381.302c-0.105,2.013,0.173,4.069,0.293,6.078
		c0.121,2.027,0.216,4.056,0.29,6.086c0.151,4.09,0.16,8.186-0.104,12.271c-0.155,2.381-0.371,4.738-0.842,7.08
		c-0.039,0.189,0.26,0.264,0.286,0.079c0.573-4.072,1.05-8.137,1.141-12.253c0.092-4.142-0.062-8.277-0.321-12.411
		c-0.143-2.296-0.151-4.688-0.597-6.949C399.442,381.199,399.317,381.222,399.313,381.302"/>
	<path clip-path="url(#SVGID_2_)" fill="#FFFFFF" d="M426.477,416.627c1.07,10.944,1.489,21.946,0.841,32.93
		c-0.183,3.113-0.443,6.223-0.776,9.324c-0.033,0.305,0.444,0.303,0.477,0c1.183-11.005,1.418-22.143,0.567-33.182
		c-0.234-3.042-0.575-6.066-1.002-9.086C426.576,416.553,426.471,416.567,426.477,416.627"/>
	<path clip-path="url(#SVGID_2_)" fill="#FFFFFF" d="M424.418,453.882c-1.673-1.405-3.74-2.135-5.764-2.887
		c-2.28-0.847-4.578-1.648-6.888-2.412c-4.665-1.541-9.381-2.927-14.139-4.152c-1.316-0.34-2.636-0.667-3.959-0.981
		c-1.326-0.315-2.683-0.729-4.039-0.878c-0.22-0.023-0.24,0.306-0.05,0.369c1.129,0.378,2.343,0.562,3.502,0.834
		c1.168,0.275,2.333,0.56,3.496,0.854c2.325,0.588,4.641,1.214,6.945,1.877c4.604,1.324,9.157,2.81,13.668,4.419
		c2.437,0.869,4.905,1.729,7.11,3.111C424.393,454.093,424.504,453.955,424.418,453.882"/>
	<path clip-path="url(#SVGID_2_)" fill="#FFFFFF" d="M431.425,426.46c0.774,10.315,0.778,20.743-0.305,31.038
		c-0.296,2.81-0.727,5.598-1.16,8.389c-0.026,0.17,0.224,0.248,0.264,0.073c1.104-4.872,1.576-9.926,1.876-14.904
		c0.318-5.27,0.363-10.552,0.174-15.827c-0.104-2.927-0.279-5.851-0.521-8.769C431.736,426.251,431.409,426.249,431.425,426.46"/>
	<path clip-path="url(#SVGID_2_)" fill="#FFFFFF" d="M438.398,481.452c-4.177-2.563-8.578-4.761-13.047-6.763
		c-4.437-1.987-8.996-3.897-13.648-5.325c-0.234-0.072-0.324,0.279-0.1,0.361c4.639,1.698,9.257,3.358,13.77,5.382
		c4.407,1.976,8.692,4.196,12.954,6.466C438.407,481.615,438.476,481.499,438.398,481.452"/>
	<path clip-path="url(#SVGID_2_)" fill="#FFFFFF" d="M447.236,464.154c-0.329,4.688-0.933,9.356-1.755,13.982
		c-0.403,2.271-0.876,4.53-1.419,6.772c-0.541,2.232-1.263,4.417-1.813,6.645c-0.071,0.287,0.337,0.391,0.438,0.121
		c0.817-2.211,1.343-4.582,1.888-6.871c0.535-2.245,1-4.506,1.395-6.779c0.797-4.584,1.231-9.221,1.384-13.87
		C447.356,464.078,447.241,464.08,447.236,464.154"/>
	<path clip-path="url(#SVGID_2_)" fill="#FFFFFF" d="M447.71,503.865c0.015,0,0.015-0.022,0-0.022S447.695,503.865,447.71,503.865"
		/>
	<path clip-path="url(#SVGID_2_)" fill="#FFFFFF" d="M447.693,503.971c-0.388-0.285-0.714-0.634-1.096-0.909
		c-0.988-0.714-2.078-1.319-3.131-1.933c-3.095-1.801-6.312-3.413-9.631-4.76c-2.014-0.817-4.079-1.521-6.202-1.994
		c-0.215-0.048-0.308,0.282-0.091,0.332c6.666,1.491,12.827,4.969,18.604,8.51c0.495,0.304,1.028,0.478,1.527,0.788
		C447.695,504.018,447.713,503.986,447.693,503.971"/>
	<path clip-path="url(#SVGID_2_)" fill="#FFFFFF" d="M401.551,383.559c8.203,9.562,15.574,19.839,22.089,30.619
		c6.179,10.223,11.573,20.911,16.253,31.898c4.4,10.325,8.177,20.91,11.407,31.657c2.938,9.776,5.424,19.686,7.531,29.673
		c1.815,8.605,3.345,17.27,4.751,25.95c0.153,0.947,0.323,1.894,0.462,2.843c0.027,0.184,0.306,0.105,0.279-0.078
		c-1.255-8.585-2.569-17.135-4.289-25.644c-2.002-9.905-4.367-19.738-7.168-29.449c-3.09-10.713-6.71-21.278-10.94-31.596
		c-4.496-10.966-9.694-21.652-15.651-31.899c-6.271-10.787-13.399-21.074-21.444-30.614c-1.012-1.2-2.038-2.388-3.075-3.565
		C401.632,383.214,401.431,383.418,401.551,383.559"/>
	<path clip-path="url(#SVGID_2_)" fill="#DBE1FC" d="M544.322,524.262c0,0-2.32,79.883-34.8,95.37h-58.941
		c-32.479-15.487-34.799-95.37-34.799-95.37H544.322z"/>
	<polygon clip-path="url(#SVGID_2_)" fill="#3859E0" points="468.86,352.548 418.957,352.548 439.686,265.792 489.59,265.792 	"/>
	<polygon clip-path="url(#SVGID_2_)" fill="#1C2472" points="475.758,352.548 425.854,352.548 446.583,265.792 496.487,265.792 	"/>
	<polygon clip-path="url(#SVGID_2_)" fill="#111A56" points="432.254,325.759 430.65,332.47 478.96,339.147 485.357,312.373 	"/>
	<path clip-path="url(#SVGID_2_)" fill="#3859E0" d="M620.348,329.516H273.505c-2.583,0-4.678-2.094-4.678-4.678V90.736
		c0-2.583,2.095-4.678,4.678-4.678h346.843c2.584,0,4.678,2.095,4.678,4.678v234.102
		C625.025,327.422,622.932,329.516,620.348,329.516"/>
	<path clip-path="url(#SVGID_2_)" fill="#1C2472" d="M629.171,329.516H282.328c-2.583,0-4.678-2.094-4.678-4.678V90.736
		c0-2.583,2.095-4.678,4.678-4.678h346.843c2.583,0,4.678,2.095,4.678,4.678v234.102
		C633.849,327.422,631.754,329.516,629.171,329.516"/>
	<rect x="292.445" y="96.17" clip-path="url(#SVGID_2_)" fill="#FFFFFF" width="326.61" height="223.234"/>
	<path clip-path="url(#SVGID_2_)" fill="#1C2472" d="M533.597,364.783H381.581v-12.234h147.039c2.748,0,4.978,2.229,4.978,4.979
		V364.783z"/>
	<path clip-path="url(#SVGID_2_)" fill="#3859E0" d="M419.728,364.783h-38.147v-12.234h33.169c2.749,0,4.978,2.229,4.978,4.979
		V364.783z"/>
	<polygon clip-path="url(#SVGID_2_)" fill="none" stroke="#3859E0" stroke-width="1.5" stroke-miterlimit="10" points="
		318.43,621.252 312.488,621.252 312.488,368.915 335.086,368.915 	"/>
	<polygon clip-path="url(#SVGID_2_)" fill="none" stroke="#3859E0" stroke-width="1.5" stroke-miterlimit="10" points="
		847.677,621.252 853.619,621.252 853.619,368.915 831.021,368.915 	"/>
	<rect x="260.107" y="364.292" clip-path="url(#SVGID_2_)" fill="#6E92EA" width="645.893" height="11.539"/>
	<path clip-path="url(#SVGID_2_)" fill="#EEEEEE" d="M551,207.893c0,53.02-42.98,96-96,96c-53.02,0-96-42.98-96-96s42.98-96,96-96
		C508.02,111.893,551,154.873,551,207.893"/>
	<path clip-path="url(#SVGID_2_)" fill="#FFFFFF" d="M555.822,247.482c0,11.825-9.586,21.411-21.411,21.411S513,259.307,513,247.482
		c0-11.825,9.586-21.412,21.411-21.412S555.822,235.657,555.822,247.482"/>
	<path clip-path="url(#SVGID_2_)" fill="#D6390F" d="M534.209,225.615c-12.044,0-21.791,9.746-21.791,21.791
		c0,12.044,9.746,21.791,21.791,21.791c12.044,0,21.791-9.746,21.791-21.791C556,235.362,546.254,225.615,534.209,225.615
		 M534.209,265.792c-10.162,0-18.387-8.223-18.387-18.386c0-10.162,8.224-18.386,18.387-18.386c10.162,0,18.386,8.223,18.386,18.386
		C552.595,257.568,544.372,265.792,534.209,265.792"/>
	<path clip-path="url(#SVGID_2_)" fill="#D6390F" d="M541.664,252.454l-5.048-5.048l5.048-5.048c0.665-0.665,0.665-1.742,0-2.407
		s-1.742-0.665-2.407,0l-5.048,5.047l-5.048-5.047c-0.665-0.665-1.743-0.665-2.408,0c-0.664,0.665-0.664,1.742,0.001,2.407
		l5.048,5.048l-5.048,5.048c-0.665,0.665-0.665,1.743-0.001,2.408c0.665,0.665,1.743,0.664,2.408,0l5.048-5.048l5.048,5.048
		c0.665,0.664,1.743,0.664,2.407,0C542.329,254.197,542.329,253.119,541.664,252.454"/>
	<path clip-path="url(#SVGID_2_)" fill="none" stroke="#3859E0" stroke-miterlimit="10" d="M691.649,462.965l-41.472,152.997
		c-0.549,2.024,0.976,4.016,3.073,4.016c1.395,0,2.627-0.908,3.04-2.241l47.938-154.771H691.649z"/>
	<path clip-path="url(#SVGID_2_)" fill="none" stroke="#3859E0" stroke-miterlimit="10" d="M788.059,462.965l41.471,152.997
		c0.549,2.024-0.976,4.016-3.072,4.016c-1.395,0-2.627-0.908-3.04-2.241l-47.938-154.771H788.059z"/>
	<path clip-path="url(#SVGID_2_)" fill="none" stroke="#3859E0" stroke-miterlimit="10" d="M745.095,462.965l10.764,153.607
		c0.129,1.841-1.33,3.405-3.176,3.405h-0.237c-1.625,0-2.988-1.224-3.164-2.839l-16.767-154.174H745.095z"/>
	<path clip-path="url(#SVGID_2_)" fill="#FFFFFF" d="M683.445,409.816c0,0-80.573,14.548-80.573,39.968
		c0,25.422,76.802,24.803,136.363,25.407c65.843,0.669,116.218-20.893,124.412-73.204c12.012-76.68-6.414-199.182-68.99-214.035
		C665.414,157.275,683.445,409.816,683.445,409.816"/>
	<path clip-path="url(#SVGID_2_)" fill="#F5D0C0" d="M548.046,292.094l-10.218-4.504c0,0-9.356,2.84-13.352,2.325
		c-3.995-0.516-8.02-3.326-10.318-5.625c-2.338-2.338-4.766-6.556-4.12-7.202c2.432-2.431,10.92,3.642,12.913,3.339
		c1.992-0.304,4.836-1.737,8.252-2.617c6.622-1.704,11.248,2.427,11.248,2.427l11.668,5.271"/>
	<path clip-path="url(#SVGID_2_)" fill="#3859E0" d="M701.71,209.052c0,0-28.743,4.625-48.522,29.388
		c-20.439,25.588-37.391,52.109-37.391,52.109l-70.409-9.086l-5.391,7.076c0,0,69.149,51.637,99.894,41.748
		c30.864-9.927,62.047-62.733,62.047-62.733"/>
	<path clip-path="url(#SVGID_2_)" fill="none" stroke="#1C2472" stroke-width="0.5" stroke-miterlimit="10" d="M615.797,290.549
		c0,0,15.545-0.552,18.25,7.565"/>
	<path clip-path="url(#SVGID_2_)" fill="#3859E0" d="M578.114,605.732c0,0-21.715,13.374-20.547,16.271
		c1.568,3.89,28.287-1.873,30.934-5.033c2.325-2.777-3.361-12.045-3.361-12.045l-5.504-1.335"/>
	<path clip-path="url(#SVGID_2_)" fill="#F5D0C0" d="M574.836,596.114l1.431,11.149c0,0,1.493,0.408,4.357-0.173
		c2.862-0.582,4.516-2.164,4.516-2.164l5.903-20.361"/>
	<path clip-path="url(#SVGID_2_)" fill="#1C2472" d="M690.482,366.472c0,0-93.856,8.655-117.134,39.34
		c-23.353,30.782,2.016,195.066,2.016,195.066c3.736,0.128,11.481-1.741,11.481-1.741s28.242-61.071,28.242-106.703
		c0-23.144-2.291-37.773-3.943-45.315c-0.649-2.965,1.888-5.646,4.886-5.175c23.24,3.657,101.271,14.484,117.836-2.081
		c23.423-23.422,10.757-73.391,10.757-73.391"/>
	<path clip-path="url(#SVGID_2_)" fill="#3859E0" d="M717.618,603.641c0,0-19.228,13.878-17.801,16.656
		c1.916,3.731,27.999-4.439,30.347-7.826c2.063-2.978-4.818-12.431-4.818-12.431l-5.229-0.088"/>
	<path clip-path="url(#SVGID_2_)" fill="#F5D0C0" d="M714.252,598.617l3.366,5.024c0,0,1.003,0.547,3.803-0.292
		c2.799-0.84,3.924-3.309,3.924-3.309l-3.312-18.17"/>
	<path clip-path="url(#SVGID_2_)" fill="#1C2472" d="M742.549,378.154c0,0-117.289,6.729-130.063,31.521
		c-17.696,34.347,101.766,188.942,101.766,188.942s6.251,0,10.275-3.644c0.817-1.328-11.648-71.539-26.821-107.075
		c-8.195-19.192-19.247-30.346-23.074-33.83c-0.429-0.391-0.127-1.096,0.451-1.054c14.709,1.075,112.563,5.959,134.653-13.151
		c31.033-26.845,10.758-73.391,10.758-73.391"/>
	<path clip-path="url(#SVGID_2_)" fill="none" stroke="#374AAA" stroke-width="0.5" stroke-miterlimit="10" d="M616.03,440.646
		c0,0-9.207-27.751-0.509-35.886c8.697-8.135,43.241-24.09,103.455-26.563"/>
	<path clip-path="url(#SVGID_2_)" fill="#3859E0" d="M686.153,237.387c-8.009,28.719-12.812,114.886-15.212,117.287
		c-2.4,2.4-5.608,4.857-5.608,12.492c0,7.634,31.23,11.798,53.438,14.573c22.208,2.776,84.462,0.063,99.937-7.197
		c8.328-3.906,4.164-9.705,4.164-9.705s-1.985-2.084-9.716-43.703c-13.982-75.269-39.212-104.969-39.212-104.969l-24.79-13.775
		l-47.444,6.662L686.153,237.387z"/>
	<path clip-path="url(#SVGID_2_)" fill="none" stroke="#1C2472" stroke-width="0.5" stroke-miterlimit="10" d="M685.227,238.44
		c-8.716,17.697-8.369,62.061-8.369,62.061"/>
	<path clip-path="url(#SVGID_2_)" fill="#F5D0C0" d="M885.517,218.866l2.372-12.251c0,0,9.937-1.862,13.013-4.463
		c3.076-2.602,4.608-6.621,4.893-9.86c0.219-2.484-1.694-9.392-2.607-9.369c-2.158,0.055-4.316,9.605-6.153,10.432
		c-1.839,0.826-8.477,0.843-11.693,2.289c-3.217,1.448-4.788,8.136-4.788,8.136l-4.793,12.231"/>
	<path clip-path="url(#SVGID_2_)" fill="#3859E0" d="M778.108,268.373c24.671,24.671,59.984,66.659,86.086,55.418
		c26.591-11.451,22.825-112.687,22.825-112.687l-8.197-2.911c-13.212,24.94-32.392,59.751-32.392,59.751
		s-22.515-40.934-47.506-53.092c-16.075-7.821-31.643-13.2-49.771-12.462"/>
	<path clip-path="url(#SVGID_2_)" fill="none" stroke="#1C2472" stroke-width="0.5" stroke-miterlimit="10" d="M835.107,295.948
		c0.257-13.16,11.323-28.004,11.323-28.004"/>
	<path clip-path="url(#SVGID_2_)" fill="none" stroke="#1C2472" stroke-width="0.5" stroke-miterlimit="10" d="M781.841,272.148
		c0,0,15.392,15.878,26.571,26.729"/>
	<path clip-path="url(#SVGID_2_)" fill="#3859E0" d="M691.035,156.395c-1.748,3.717-2.058,8.089-0.85,12.015
		c1.208,3.925,3.921,7.368,7.456,9.459c1.262,0.746,2.832,1.328,4.161,0.712c1.174-0.545,1.773-1.85,2.181-3.079
		c2.801-8.458,0.687-18.356-5.326-24.93"/>
	<path clip-path="url(#SVGID_2_)" fill="#EDB5A2" d="M699.938,173.801c-0.568-0.482-1.467-0.382-2.072,0.052
		c-0.605,0.433-0.973,1.122-1.259,1.809c-0.309,0.739-0.552,1.537-0.445,2.33c0.082,0.609,0.365,1.172,0.688,1.695
		c1.02,1.657,2.481,3.039,4.192,3.966c0.469,0.253,0.965,0.477,1.493,0.548c1.707,0.233,3.185-1.104,4.386-2.339"/>
	<path clip-path="url(#SVGID_2_)" fill="#F5D0C0" d="M716.887,183.429l2.024,21.425l-15.856,4.009c0,0,11.253,10.668,25.074,9.93
		c20.754-1.108,27.255-16.403,27.255-16.403l-13.421-0.233l-11.268-33.317"/>
	<path clip-path="url(#SVGID_2_)" fill="#EDB5A2" d="M734.262,179.385l-3.566-10.545l-13.809,14.589l1.449,15.34
		c7.225-1.336,12.933-7.327,14.689-15.492C733.309,181.957,733.918,180.712,734.262,179.385"/>
	<path clip-path="url(#SVGID_2_)" fill="#F5D0C0" d="M694.192,160.234c2.168,6.748,4.345,13.517,7.35,19.936
		c3.089,6.598,8.521,13.606,15.788,13.096c8.676-0.609,14.513-5.468,17.557-13.388c3.143-8.178,3.511-18.069-1.434-25.638
		c-3.605-5.521-9.454-9.674-15.87-11.199C711.167,141.517,691.752,150.534,694.192,160.234"/>
	<path clip-path="url(#SVGID_2_)" fill="#3859E0" d="M737.047,173.467c-1.463,0.9-3.323-2.03-4.102-5.958
		c-0.361-1.823-0.961-3.519-1.224-5.359c-0.53-3.698-2.926-6.718-6.174-8.464c-4.254-2.285-7.897-1.451-12.226,0.284
		c-4.016,1.611-7.857,3.652-11.949,5.06c-4.091,1.407-8.555,2.161-12.749,1.098c-3.401-0.863-7.146-3.104-9.322-5.892
		c-2.591-3.32-1.664-6.762,1.274-9.406c1.973-1.775,4.361-3.272,5.484-5.676c1.649-3.531,0.082-8.041,2.069-11.395
		c1.574-2.655,4.963-3.722,8.048-3.599c1.681,0.067,3.35,0.42,4.913,1.04c1.928,0.765,4.304,2.457,6.494,1.997
		c1.461-0.306,2.44-1.722,3.873-2.231c3.351-1.193,8.067-0.809,10.227,2.35c0.753,1.102,1.13,2.443,1.983,3.471
		c6.178,7.445,14.027,2.281,17.418,14.64c1.477,5.386-0.423,10.069,0.079,16.501C741.771,169.696,739.128,172.186,737.047,173.467"
		/>
	<path clip-path="url(#SVGID_2_)" fill="#F5D0C0" d="M732.335,169.75c-0.574-5.108,6.795-6.318,7.309,0.056
		c0.486,6.025-4.611,13.007-7.283,6.935"/>
	<path clip-path="url(#SVGID_2_)" fill="#1C2472" d="M726.683,167.874c-0.093,0.901-0.898,1.556-1.8,1.462
		c-0.9-0.093-1.555-0.899-1.462-1.799c0.094-0.901,0.899-1.556,1.8-1.462C726.121,166.168,726.775,166.974,726.683,167.874"/>
	<path clip-path="url(#SVGID_2_)" fill="#1C2472" d="M718.86,161.383c1.377-0.612,2.804-1.175,4.305-1.313
		c1.501-0.137,3.103,0.199,4.228,1.202"/>
	<path clip-path="url(#SVGID_2_)" fill="#1C2472" d="M703.154,172.579c0.311,0.851,1.252,1.289,2.103,0.978s1.288-1.252,0.978-2.103
		c-0.311-0.85-1.252-1.288-2.103-0.977C703.281,170.787,702.844,171.728,703.154,172.579"/>
	<path clip-path="url(#SVGID_2_)" fill="#1C2472" d="M706.692,163.773c-1.508,0.011-3.04,0.087-4.464,0.581
		c-1.424,0.495-2.744,1.462-3.354,2.84"/>
</g>
<g>
	<defs>
		<path id="SVGID_3_" d="M712.27,169.491c-0.048,0.154-0.02,0.319,0.006,0.48c0.421,2.643,0.361,5.484-0.728,7.969
			c-0.188,0.427-0.397,0.918-0.19,1.335c0.182,0.365,0.618,0.519,1.02,0.592c1.271,0.233,2.907,0.4,4.018-0.263
			c0.354-0.21,0.705-0.499,0.752-0.945c0.104-1.001-2.582-7.335-3.033-8.509c-0.13-0.337-0.324-0.795-0.67-0.964
			c-0.096-0.046-0.235-0.07-0.386-0.07C712.729,169.116,712.349,169.231,712.27,169.491"/>
	</defs>
	<clipPath id="SVGID_4_">
		<use xlink:href="#SVGID_3_"  overflow="visible"/>
	</clipPath>
	
		<linearGradient id="SVGID_5_" gradientUnits="userSpaceOnUse" x1="0" y1="827.9321" x2="1" y2="827.9321" gradientTransform="matrix(1.1142 -10.7597 -10.7597 -1.1142 9621.9736 1102.4946)">
		<stop  offset="0" style="stop-color:#F5D0C0"/>
		<stop  offset="0" style="stop-color:#F5AE93"/>
		<stop  offset="1" style="stop-color:#F5D0C0"/>
	</linearGradient>
	<polygon clip-path="url(#SVGID_4_)" fill="url(#SVGID_5_)" points="710.008,180.149 711.215,168.491 718.394,169.234 
		717.187,180.892 	"/>
</g>
<g>
	<defs>
		<rect id="SVGID_6_" y="-172.107" width="1000" height="1000"/>
	</defs>
	<clipPath id="SVGID_7_">
		<use xlink:href="#SVGID_6_"  overflow="visible"/>
	</clipPath>
	<path clip-path="url(#SVGID_7_)" fill="#F2AAA2" d="M729.131,174.786c-0.926-2.423-3.433-2.973-5.536-1.694
		c-0.452,0.275-0.872,0.657-1.135,1.168c-0.615,1.193-0.275,2.813,0.434,3.795c0.626,0.866,1.35,1.159,2.308,1.406
		c1.199,0.309,2.882-0.138,3.669-1.278C729.523,177.237,729.544,175.865,729.131,174.786"/>
	<path clip-path="url(#SVGID_7_)" fill="#F2AAA2" d="M709.986,178.813c-0.927-2.423-3.434-2.973-5.537-1.693
		c-0.452,0.275-0.872,0.657-1.135,1.167c-0.615,1.193-0.275,2.813,0.435,3.795c0.626,0.866,1.349,1.159,2.307,1.406
		c1.198,0.309,2.883-0.138,3.669-1.277C710.379,181.266,710.398,179.894,709.986,178.813"/>
	<path clip-path="url(#SVGID_7_)" fill="#E2967F" d="M712.789,185.578c1.177-0.922,2.78-1.26,4.229-1.465
		c0.81-0.114,1.622-0.185,2.44-0.214c0.742-0.026,1.479,0.028,2.219,0.024c0.077-0.001,0.099-0.122,0.019-0.138
		c-0.74-0.154-1.546-0.146-2.299-0.135c-0.841,0.013-1.687,0.075-2.518,0.204c-1.474,0.228-3.066,0.608-4.255,1.558
		C712.506,185.507,712.673,185.669,712.789,185.578"/>
	<rect x="127.478" y="423.797" clip-path="url(#SVGID_7_)" fill="#003948" width="233.773" height="244.372"/>
	<rect x="140.658" y="459.488" clip-path="url(#SVGID_7_)" fill="#FFFFFF" width="208.987" height="161.134"/>
	<rect x="149.506" y="601.024" clip-path="url(#SVGID_7_)" fill="#FDB34D" width="188.149" height="19.598"/>
	<rect x="182.549" y="613.08" clip-path="url(#SVGID_7_)" fill="#0AB9C1" width="10.529" height="64.356"/>
	<rect x="99.576" y="482.585" clip-path="url(#SVGID_7_)" fill="#A8A8A8" width="10.529" height="164.979"/>
	<rect x="140.657" y="481.835" clip-path="url(#SVGID_7_)" fill="#0A1D23" width="208.987" height="11.005"/>
	<rect x="203.609" y="613.08" clip-path="url(#SVGID_7_)" fill="#0AB9C1" width="10.531" height="64.356"/>
	<rect x="224.668" y="613.08" clip-path="url(#SVGID_7_)" fill="#0AB9C1" width="10.531" height="64.356"/>
	<rect x="92.732" y="436.445" clip-path="url(#SVGID_7_)" fill="#0A1D23" width="34.747" height="46.141"/>
	<rect x="92.732" y="647.564" clip-path="url(#SVGID_7_)" fill="#0A1D23" width="34.747" height="20.605"/>
	<rect x="378.625" y="482.585" clip-path="url(#SVGID_7_)" fill="#A8A8A8" width="10.531" height="164.979"/>
	<rect x="361.251" y="436.445" clip-path="url(#SVGID_7_)" fill="#0A1D23" width="34.749" height="46.141"/>
	<rect x="361.251" y="647.564" clip-path="url(#SVGID_7_)" fill="#0A1D23" width="34.749" height="20.605"/>
	<rect x="263.269" y="481.836" clip-path="url(#SVGID_7_)" fill="#003948" width="36.005" height="29.863"/>
	<rect x="275.87" y="511.699" clip-path="url(#SVGID_7_)" fill="#0A1D23" width="10.802" height="8.925"/>
	<path clip-path="url(#SVGID_7_)" fill="#0A1D23" d="M108.442,481.832h-7.201v-43.445c0-15.302,11.913-27.758,26.554-27.758
		s26.554,12.456,26.554,27.758v3.984h-7.201v-3.984c0-11.155-8.681-20.23-19.353-20.23c-10.671,0-19.353,9.075-19.353,20.23V481.832
		z"/>
	<rect x="127.478" y="423.798" clip-path="url(#SVGID_7_)" fill="#088B91" width="233.773" height="35.689"/>
	<path clip-path="url(#SVGID_7_)" fill="#0A1D23" d="M284.872,481.832h-7.201v-63.889c0-17.382-13.527-31.522-30.154-31.522
		c-16.629,0-30.155,14.141-30.155,31.522v5.851h-7.201v-5.851c0-21.532,16.758-39.049,37.356-39.049
		c20.597,0,37.355,17.517,37.355,39.049V481.832z"/>
	<polygon clip-path="url(#SVGID_7_)" fill="#B3211B" points="206.734,524.229 206.734,601.024 280.195,524.229 	"/>
	<polygon clip-path="url(#SVGID_7_)" fill="#861914" points="206.734,601.024 280.195,601.024 280.195,524.229 	"/>
	<rect x="401.565" y="157.395" clip-path="url(#SVGID_7_)" fill="#303030" width="115.435" height="8.168"/>
	<rect x="455.487" y="190.834" clip-path="url(#SVGID_7_)" fill="#B3B4B5" width="8.842" height="12.584"/>
	<rect x="450.208" y="177.416" clip-path="url(#SVGID_7_)" fill="#3A3A3A" width="19.23" height="19.678"/>
	<path clip-path="url(#SVGID_7_)" fill="#6C6D6D" d="M476.208,186.808c23.178,0,19.553-29.413,19.553-29.413h-71.706
		c0,0-3.62,29.413,19.559,29.413H476.208z"/>
	<path clip-path="url(#SVGID_7_)" fill="#D6390F" d="M424.616,219.34c0,0,3.784,41.18,20.112,41.18h15.095v-41.18H424.616z"/>
	<path clip-path="url(#SVGID_7_)" fill="#B22206" d="M497.39,219.339h-37.566v41.18h12.828c8.162,0,13.189-10.296,16.178-20.592
		h8.56c4.804,0,8.695-3.895,8.695-8.697v-3.189C506.085,223.232,502.193,219.339,497.39,219.339 M500.869,231.23
		c0,1.917-1.562,3.48-3.479,3.48h-7.207c0.894-3.841,1.517-7.414,1.92-10.148h5.287c1.918,0,3.479,1.563,3.479,3.479V231.23z"/>
	<path clip-path="url(#SVGID_7_)" fill="#B22206" d="M464.329,207.797v-4.379h-8.842v9.131c0,3.488,3.254,6.829,9.118,6.829h25.856
		v-4.134c0-3.865-3.046-4.75-5.73-4.75h-16.165C466.496,210.495,464.329,210.648,464.329,207.797"/>
</g>
</svg>
